<svg xmlns="http://www.w3.org/2000/svg" viewBox="0 0 64 64">
  <defs>
    <linearGradient id="bg" x1="0" y1="0" x2="1" y2="1">
      <stop offset="0%" stop-color="#2E86EB"/>
      <stop offset="100%" stop-color="#152D63"/>
    </linearGradient>
  </defs>
  <circle cx="32" cy="32" r="32" fill="url(#bg)"/>

  <!-- flippers -->
  <ellipse cx="14" cy="20" rx="7" ry="5" fill="#FFFFFF" transform="rotate(-30 14 20)"/>
  <ellipse cx="14" cy="46" rx="7" ry="5" fill="#FFFFFF" transform="rotate(30 14 46)"/>
  <ellipse cx="50" cy="20" rx="7" ry="5" fill="#FFFFFF" transform="rotate(30 50 20)"/>
  <ellipse cx="50" cy="46" rx="7" ry="5" fill="#FFFFFF" transform="rotate(-30 50 46)"/>

  <!-- head -->
  <circle cx="32" cy="14" r="7" fill="#FFFFFF"/>
  <circle cx="29.5" cy="12.5" r="1.3" fill="#152D63"/>
  <circle cx="34.5" cy="12.5" r="1.3" fill="#152D63"/>

  <!-- shell -->
  <ellipse cx="32" cy="36" rx="20" ry="18" fill="#FFFFFF"/>
  <g stroke="#2E86EB" stroke-width="1.6" fill="none" stroke-linejoin="round">
    <polygon points="32,24 40,30 40,42 32,48 24,42 24,30"/>
    <polygon points="32,24 32,48"/>
    <polygon points="24,30 40,30"/>
    <polygon points="24,42 40,42"/>
  </g>
</svg>
